<svg xmlns="http://www.w3.org/2000/svg" width="1400" height="720" viewBox="0 0 1400 720" role="img" aria-labelledby="title desc">
  <title id="title">Cement Plant AI prototype architecture</title>
  <desc id="desc">A three-station operations rail moves plant data through AI-assisted reasoning to an operator-reviewed decision.</desc>
  <defs>
    <marker id="direction" markerWidth="12" markerHeight="12" refX="10" refY="6" orient="auto">
      <path d="M0 0l12 6-12 6z" fill="#1D1A17"/>
    </marker>
  </defs>
  <rect width="1400" height="720" fill="#F7F2E8"/>
  <rect x="28" y="28" width="1344" height="664" fill="none" stroke="#1D1A17" stroke-width="2"/>
  <rect x="28" y="28" width="10" height="664" fill="#A4773F"/>
  <text x="70" y="78" fill="#875C2C" font-family="Courier New, monospace" font-size="14" font-weight="700" letter-spacing="2.5">CEMENT PLANT AI / OPERATIONS RAIL 01</text>
  <text x="70" y="142" fill="#1D1A17" font-family="Georgia, Times New Roman, serif" font-size="50" font-weight="700">Observe. Reason. Review.</text>
  <text x="1330" y="136" fill="#7A644B" font-family="Courier New, monospace" font-size="13" text-anchor="end">THE AGENT ADVISES · THE OPERATOR DECIDES</text>
  <line x1="70" y1="174" x2="1330" y2="174" stroke="#D7C9B3" stroke-width="2"/>

  <g fill="none" stroke="#1D1A17" stroke-width="5" marker-end="url(#direction)">
    <line x1="302" y1="338" x2="636" y2="338"/>
    <line x1="762" y1="338" x2="1096" y2="338"/>
  </g>
  <g fill="#F7F2E8" stroke="#1D1A17" stroke-width="5">
    <circle cx="240" cy="338" r="62"/><circle cx="700" cy="338" r="62"/><circle cx="1160" cy="338" r="62"/>
  </g>
  <circle cx="700" cy="338" r="48" fill="#A4773F"/>
  <g font-family="Georgia, Times New Roman, serif" font-size="36" font-weight="700" text-anchor="middle">
    <text x="240" y="351" fill="#1D1A17">01</text><text x="700" y="351" fill="#F7F2E8">02</text><text x="1160" y="351" fill="#1D1A17">03</text>
  </g>

  <g font-family="Arial, Helvetica, sans-serif">
    <text x="240" y="238" fill="#1D1A17" font-size="25" font-weight="700" text-anchor="middle">Observe the plant</text>
    <text x="700" y="238" fill="#1D1A17" font-size="25" font-weight="700" text-anchor="middle">Reason with context</text>
    <text x="1160" y="238" fill="#1D1A17" font-size="25" font-weight="700" text-anchor="middle">Review the action</text>
    <g fill="#7A644B" font-family="Courier New, monospace" font-size="14" text-anchor="middle">
      <text x="240" y="442">PROCESS SIGNALS + HISTORY</text><text x="700" y="442">LANGGRAPH + GEMINI + MCP</text><text x="1160" y="442">KPIS + EVIDENCE + CONTROL</text>
    </g>
  </g>

  <g font-family="Courier New, monospace" font-size="13">
    <rect x="78" y="478" width="324" height="56" fill="#FFFFFF" stroke="#D7C9B3" stroke-width="2"/>
    <text x="240" y="512" fill="#1D1A17" text-anchor="middle">PostgreSQL / Supabase</text>
    <rect x="538" y="478" width="324" height="56" fill="#1D1A17"/>
    <text x="700" y="512" fill="#F7F2E8" text-anchor="middle">FastAPI / WebSockets / tools</text>
    <rect x="998" y="478" width="324" height="56" fill="#FFFFFF" stroke="#D7C9B3" stroke-width="2"/>
    <text x="1160" y="512" fill="#1D1A17" text-anchor="middle">Next.js operator workspace</text>
  </g>

  <rect x="70" y="584" width="1260" height="62" fill="#1D1A17"/>
  <text x="98" y="622" fill="#F7F2E8" font-family="Arial, Helvetica, sans-serif" font-size="17">Prototype decision support—not a replacement for DCS, SCADA, or plant safety systems.</text>
  <text x="1302" y="622" fill="#DCC8A6" font-family="Courier New, monospace" font-size="12" text-anchor="end">MODELED TARGETS · NOT FIELD RESULTS</text>
</svg>
